# Blender v2.79 (sub 6) OBJ File: ''
# www.blender.org
o Cube.001
v -0.240000 -0.240000 -0.210000
v -0.240000 0.040000 -0.210000
v -0.240000 -0.240000 -1.000000
v -0.240000 0.040000 -1.000000
v 0.240000 -0.240000 -0.210000
v 0.240000 0.040000 -0.210000
v 0.240000 -0.240000 -1.000000
v 0.240000 0.040000 -1.000000
v -0.240000 -0.240000 0.090000
v -0.240000 0.040000 0.090000
v 0.240000 0.040000 0.090000
v 0.240000 -0.240000 0.090000
v -0.240000 -1.000000 -0.210000
v 0.240000 -1.000000 -0.210000
v -0.240000 -1.000000 0.090000
v 0.240000 -1.000000 0.090000
vt 0.000000 0.000000
vt 1.000000 0.000000
vt 1.000000 1.000000
vt 0.000000 1.000000
vt 0.000000 0.000000
vt 1.000000 0.000000
vt 1.000000 1.000000
vt 0.000000 1.000000
vt 0.000000 0.000000
vt 1.000000 0.000000
vt 1.000000 1.000000
vt 0.000000 1.000000
vt 0.000000 0.000000
vt 1.000000 1.000000
vt 0.000000 1.000000
vt 1.000000 0.000000
vt 1.000000 1.000000
vt 0.000000 1.000000
vt 0.000000 0.000000
vt 1.000000 1.000000
vt 0.000000 1.000000
vt 0.000000 0.000000
vt 1.000000 0.000000
vt 0.000000 1.000000
vt 0.000000 0.000000
vt 1.000000 0.000000
vt 1.000000 1.000000
vt 0.000000 1.000000
vt 0.000000 0.000000
vt 1.000000 0.000000
vt 1.000000 1.000000
vt 0.000000 1.000000
vt 1.000000 0.000000
vt 1.000000 1.000000
vt 0.000000 1.000000
vt 0.000000 0.000000
vt 1.000000 0.000000
vt 0.000000 1.000000
vt 1.000000 0.000000
vt 1.000000 1.000000
vt 0.000000 1.000000
vt 1.000000 0.000000
vt 1.000000 1.000000
vt 0.000000 1.000000
vt 0.000000 0.000000
vt 1.000000 1.000000
vn -1.0000 0.0000 0.0000
vn 0.0000 0.0000 -1.0000
vn 1.0000 0.0000 0.0000
vn 0.0000 1.0000 0.0000
vn 0.0000 -1.0000 0.0000
vn 0.0000 0.0000 1.0000
s off
f 1/1/1 2/2/1 4/3/1 3/4/1
f 3/5/2 4/6/2 8/7/2 7/8/2
f 7/9/3 8/10/3 6/11/3 5/12/3
f 6/13/4 2/2/4 10/14/4 11/15/4
f 3/5/5 7/16/5 5/17/5 1/18/5
f 8/19/4 4/6/4 2/20/4 6/21/4
f 12/22/6 11/23/6 10/14/6 9/24/6
f 5/25/3 6/26/3 11/27/3 12/28/3
f 2/29/1 1/30/1 9/31/1 10/32/1
f 5/25/3 12/33/3 16/34/3 14/35/3
f 13/36/5 14/37/5 16/34/5 15/38/5
f 12/22/6 9/39/6 15/40/6 16/41/6
f 1/1/2 5/42/2 14/43/2 13/44/2
f 9/45/1 1/30/1 13/46/1 15/38/1
